#N canvas 260 83 2147 1273 16;
#X text 28 -51 -----for Timbre Hackathon 2024----- Time: 24/02/2024
Author: Yazhou Li & Yutian Hu @QMUL Project Name: Project Description:
It's a timbre exploration tool designed for in-situ acoustic timbre
capture. Add the pack to your MobmuPlat and enjoy!;
#X obj 835 44 hsl 128 15 10 400 0 0 empty empty BPM -2 -8 0 10 #fcfcfc
#000000 #000000 0 1;
#X msg 836 65 tempo \$1 permin;
#X obj 836 103 metro 1 120 permin;
#X obj 690 50 tgl 15 0 empty empty empty 17 7 0 10 #fcfcfc #000000
#000000 0 1;
#X obj 690 175 f;
#X obj 836 132 s beat;
#X obj 754 84 r beat;
#X obj 731 175 + 1;
#X floatatom 781 208 5 0 0 0 - - - 0;
#X obj 690 254 s index;
#X obj 690 221 mod 8;
#X obj 64 306 r index;
#X obj 62 447 bng 15 250 50 0 empty empty empty 17 7 0 10 #fcfcfc #000000
#000000;
#N canvas -216 929 2462 930 samplesload 0;
#N canvas 0 50 450 250 (subpatch) 0;
#X array sample2 176519 float 2;
#X coords 0 1 176519 -1 200 140 1 0 0;
#X restore 105 191 graph;
#N canvas 0 50 450 250 (subpatch) 0;
#X array sample0 95868 float 2;
#X coords 0 1 95868 -1 200 140 1 0 0;
#X restore 107 22 graph;
#N canvas 0 50 450 250 (subpatch) 0;
#X array sample3 176519 float 2;
#X coords 0 1 176519 -1 200 140 1;
#X restore 108 368 graph;
#N canvas 0 50 450 250 (subpatch) 0;
#X array sample4 38741 float 2;
#X coords 0 1 38741 -1 200 140 1;
#X restore 109 537 graph;
#N canvas 0 50 450 250 (subpatch) 0;
#X array sample6 95868 float 2;
#X coords 0 1 95868 -1 200 140 1 0 0;
#X restore 335 194 graph;
#N canvas 0 50 450 250 (subpatch) 0;
#X array sample1 95868 float 2;
#X coords 0 1 95868 -1 200 140 1 0 0;
#X restore 337 25 graph;
#N canvas 0 50 450 250 (subpatch) 0;
#X array sample7 176519 float 2;
#X coords 0 1 176519 -1 200 140 1 0 0;
#X restore 338 371 graph;
#N canvas 342 342 450 250 (subpatch) 0;
#X array sample5 95868 float 2;
#X coords 0 1 95868 -1 200 140 1 0 0;
#X restore 339 540 graph;
#X obj 607 125 soundfiler;
#X obj 607 27 r name0;
#X obj 609 257 soundfiler;
#X obj 609 159 r name1;
#X obj 609 389 soundfiler;
#X obj 609 291 r name2;
#X obj 610 530 soundfiler;
#X obj 610 432 r name3;
#X obj 613 678 soundfiler;
#X obj 613 580 r name4;
#X obj 954 124 soundfiler;
#X obj 954 26 r name5;
#X obj 952 259 soundfiler;
#X obj 952 161 r name6;
#X obj 952 393 soundfiler;
#X obj 952 295 r name7;
#X msg 607 72 read -resize banks/\$1.wav sample0;
#X msg 609 204 read -resize banks/\$1.wav sample1;
#X msg 609 336 read -resize banks/\$1.wav sample2;
#X msg 610 477 read -resize banks/\$1.wav sample3;
#X msg 613 626 read -resize banks/\$1.wav sample4;
#X msg 954 72 read -resize banks/\$1.wav sample5;
#X msg 952 206 read -resize banks/\$1.wav sample6;
#X msg 952 340 read -resize banks/\$1.wav sample7;
#X connect 9 0 24 0;
#X connect 11 0 25 0;
#X connect 13 0 26 0;
#X connect 15 0 27 0;
#X connect 17 0 28 0;
#X connect 19 0 29 0;
#X connect 21 0 30 0;
#X connect 23 0 31 0;
#X connect 24 0 8 0;
#X connect 25 0 10 0;
#X connect 26 0 12 0;
#X connect 27 0 14 0;
#X connect 28 0 16 0;
#X connect 29 0 18 0;
#X connect 30 0 20 0;
#X connect 31 0 22 0;
#X restore 1067 130 pd samplesload;
#X floatatom 1482 -7 5 0 7 0 - - - 0;
#X floatatom 1481 52 5 0 7 0 - - - 0;
#X obj 1481 80 s name2;
#X floatatom 1481 110 5 0 7 0 - - - 0;
#X floatatom 1480 169 5 0 7 0 - - - 0;
#X obj 1481 138 s name3;
#X obj 1480 197 s name4;
#X floatatom 1565 -7 5 0 7 0 - - - 0;
#X floatatom 1564 52 5 0 7 0 - - - 0;
#X floatatom 1564 110 5 0 7 0 - - - 0;
#X floatatom 1563 169 5 0 7 0 - - - 0;
#X obj 1565 21 s name5;
#X obj 1564 80 s name6;
#X obj 1564 138 s name7;
#X obj 690 70 == 1;
#X obj 690 99 sel 1;
#X msg 690 128 0;
#N canvas -162 344 2060 861 samplecurrent 0;
#N canvas 0 50 450 250 (subpatch) 0;
#X array sample_filter 62522 float 2;
#X coords 0 1 62522 -1 200 140 1 0 0;
#X restore 100 20 graph;
#X restore 1064 185 pd samplecurrent;
#X obj 117 74 receive fromGUI;
#X obj 116 108 route list;
#X obj 108 620 soundfiler;
#X obj 217 477 r name1;
#X obj 1482 21 s name0;
#X obj 1563 197 s name1;
#X obj 136 478 r name0;
#X obj 112 507 f;
#X floatatom 112 536 5 0 0 0 - - - 0;
#X obj 170 509 f;
#X floatatom 171 536 5 0 0 0 - - - 0;
#X obj 233 508 f;
#X floatatom 233 537 5 0 0 0 - - - 0;
#X obj 312 511 f;
#X floatatom 313 538 5 0 0 0 - - - 0;
#X obj 295 479 r name2;
#X obj 376 479 r name3;
#X obj 400 510 f;
#X floatatom 400 539 5 0 0 0 - - - 0;
#X obj 476 509 f;
#X floatatom 477 536 5 0 0 0 - - - 0;
#X obj 557 507 f;
#X floatatom 557 536 5 0 0 0 - - - 0;
#X obj 634 509 f;
#X floatatom 635 536 5 0 0 0 - - - 0;
#X obj 458 478 r name4;
#X obj 539 479 r name5;
#X obj 619 478 r name6;
#X obj 698 477 r name7;
#X obj 1064 156 table music;
#X obj 1070 49 soundfiler;
#X obj 517 668 tabplay~ music;
#N canvas 101 66 1455 1309 fft-analysis 0;
#X obj 92 534 *~;
#X obj 53 534 *~;
#X obj 360 325 *~;
#X obj 328 325 *~;
#X obj 328 351 +~;
#X obj 53 176 *~;
#X obj 53 151 inlet~;
#X obj 53 199 rfft~;
#X obj 53 603 *~;
#X obj 146 289 *~;
#X obj 328 297 rfft~;
#X obj 53 568 rifft~;
#X obj 53 636 outlet~;
#X obj 112 289 *~;
#X obj 112 312 +~;
#X text 409 355 modulus;
#X obj 110 443 *~;
#X obj 468 479 block~ 1024 4;
#X obj 467 519 loadbang;
#X obj 112 338 +~ 1e-20;
#X obj 110 503 *~ 0.00065;
#X obj 328 268 *~;
#X obj 328 239 inlet~;
#X obj 111 365 q8_rsqrt~;
#X obj 328 374 q8_sqrt~;
#X text 409 372 of control;
#X text 407 389 amplitude;
#X text 114 152 filter input;
#X text 400 212 control source;
#X text 43 19 Internal workings of the timbre stamping algorithm. First
the "filter input" is treated as in the compressor patch \, multiplying
each channel amplitude by one over its modulus (but limited by the
"squelch" parameter.) It is then multiplied by the modulus of the channel
amplitude for the control source (which is Fourier analyzed in parallel
with the filter input.);
#X text 154 435 multiply the two amplitude;
#X obj 361 269 tabreceive~ hann;
#X obj 86 603 tabreceive~ hann;
#X obj 118 174 tabreceive~ hann;
#X text 126 207 calculate amplitude;
#X text 390 296 comment;
#X msg 467 542 \; window-size 1024 \;;
#X text 154 451 factors;
#X connect 0 0 11 1;
#X connect 1 0 11 0;
#X connect 2 0 4 1;
#X connect 3 0 4 0;
#X connect 4 0 24 0;
#X connect 5 0 7 0;
#X connect 6 0 5 0;
#X connect 7 0 13 0;
#X connect 7 0 13 1;
#X connect 7 0 1 0;
#X connect 7 1 9 0;
#X connect 7 1 9 1;
#X connect 7 1 0 0;
#X connect 8 0 12 0;
#X connect 9 0 14 1;
#X connect 10 0 3 0;
#X connect 10 0 3 1;
#X connect 10 1 2 0;
#X connect 10 1 2 1;
#X connect 11 0 8 0;
#X connect 13 0 14 0;
#X connect 14 0 19 0;
#X connect 16 0 20 0;
#X connect 18 0 36 0;
#X connect 19 0 23 0;
#X connect 20 0 0 1;
#X connect 20 0 1 1;
#X connect 21 0 10 0;
#X connect 22 0 21 0;
#X connect 23 0 16 0;
#X connect 24 0 16 1;
#X connect 31 0 21 1;
#X connect 32 0 8 1;
#X connect 33 0 5 1;
#X restore 241 753 pd fft-analysis;
#N canvas -108 102 2420 1376 hann-window 0;
#N canvas 0 0 450 300 (subpatch) 0;
#X array hann 1024 float 0;
#X coords 0 1 1023 0 300 100 1 0 0;
#X restore 110 394 graph;
#X obj 327 184 osc~;
#X obj 327 209 *~ -0.5;
#X obj 327 233 +~ 0.5;
#X obj 86 113 r window-size;
#X obj 157 237 /;
#X obj 175 205 samplerate~;
#X obj 157 315 s window-sec;
#X obj 67 251 swap;
#X obj 67 275 /;
#X obj 67 299 s window-hz;
#X obj 168 265 * 1000;
#X obj 168 292 s window-msec;
#X obj 86 148 t f b f;
#X msg 175 155 resize \$1;
#X obj 279 122 r window-hz;
#X msg 352 154 0;
#X obj 279 150 t f b;
#X text 56 20 calculate Hann window table (variable window size) and
constants window-hz (fundamental frequency of analysis) \, window-sec
and window-msec (analysis window size in seconds and msec)., f 56
;
#X obj 175 179 s hann;
#X obj 310 276 tabwrite~ hann;
#X connect 1 0 2 0;
#X connect 2 0 3 0;
#X connect 3 0 20 0;
#X connect 4 0 13 0;
#X connect 5 0 7 0;
#X connect 5 0 11 0;
#X connect 6 0 5 1;
#X connect 6 0 8 1;
#X connect 8 0 9 0;
#X connect 8 1 9 1;
#X connect 9 0 10 0;
#X connect 11 0 12 0;
#X connect 13 0 5 0;
#X connect 13 0 8 0;
#X connect 13 1 6 0;
#X connect 13 2 14 0;
#X connect 14 0 19 0;
#X connect 15 0 17 0;
#X connect 16 0 1 1;
#X connect 17 0 1 0;
#X connect 17 1 16 0;
#X connect 17 1 20 0;
#X restore 1062 216 pd hann-window;
#X obj 393 794 *~;
#X obj 516 792 *~;
#X obj 622 754 - 1;
#X obj 623 786 * -1;
#X obj 721 552 adc~ 1;
#X obj 678 724 receive fromGUI;
#X obj 678 753 route list;
#X obj 1302 698 receive fromGUI;
#X obj 1301 738 route list;
#X obj 810 542 r MicToggle;
#X obj 724 596 *~;
#X obj 678 811 s BPM;
#X obj 914 817 s Mix;
#X obj 622 725 r Mix;
#X obj 829 -2 r BPM;
#X obj 1301 796 s MicToggle;
#X obj 1014 816 s EffectOn;
#X obj 690 1 r EffectOn;
#X obj 116 137 route /MultiSlider;
#X msg 116 177 \$1;
#X obj 116 231 div 1;
#X obj 116 204 * 10;
#X obj 173 231 div 1;
#X obj 173 204 * 10;
#X obj 228 231 div 1;
#X obj 228 204 * 10;
#X obj 285 231 div 1;
#X obj 285 204 * 10;
#X obj 339 231 div 1;
#X obj 339 204 * 10;
#X obj 396 231 div 1;
#X obj 396 204 * 10;
#X obj 451 231 div 1;
#X obj 451 204 * 10;
#X obj 510 232 div 1;
#X obj 508 204 * 10;
#X msg 173 177 \$2;
#X msg 228 177 \$3;
#X msg 285 177 \$4;
#X msg 339 177 \$5;
#X msg 396 177 \$6;
#X msg 451 177 \$7;
#X msg 508 177 \$8;
#X obj 116 267 s name0;
#X obj 174 294 s name1;
#X obj 228 264 s name2;
#X obj 285 295 s name3;
#X obj 339 261 s name4;
#X obj 397 294 s name5;
#X obj 451 260 s name6;
#X obj 509 294 s name7;
#X obj 1435 799 s musicToggle;
#X obj 518 577 r musicToggle;
#X obj 409 755 r Mix;
#X obj 518 606 sel 0;
#X obj 584 607 sel 1;
#X msg 518 635 stop;
#X msg 584 636 bang;
#X obj 1146 855 s Volume;
#X obj 1146 818 * 100;
#X obj 678 782 route /BPMControl /CompressAmount /Mix /EffectOn /VolumeKnob
, f 62;
#X obj 1231 313 route /tilts;
#X obj 1231 255 receive fromSystem;
#X obj 1231 284 route list;
#X msg 1231 342 \$1;
#X msg 1296 341 \$2;
#X text 1408 344 \$1 X-axis \$2 Y-axis;
#X text 1476 291 Mix range: 0-1;
#X obj 1231 464 s Mix;
#X obj 1296 370 * 200;
#X text 1475 312 BPM range: 0-400;
#X obj 1296 399 + 200;
#X obj 1296 428 s BPM;
#X text 1134 892 0-1 to 0-100 (dB);
#X obj 1069 -13 loadbang;
#N canvas 114 114 2154 1145 abandon 0;
#X obj 54 27 loadbang;
#X obj 64 85 send toGUI;
#X obj 65 145 send toGUI;
#X obj 63 205 send toGUI;
#X obj 64 265 send toGUI;
#X obj 61 325 send toGUI;
#X obj 62 385 send toGUI;
#X obj 60 445 send toGUI;
#X obj 61 505 send toGUI;
#X text 53 -3 Load Menu;
#X msg 64 56 list /IRMenu1 0 1 2 3 4 5 6 7;
#X msg 65 116 list /IRMenu2 0 1 2 3 4 5 6 7;
#X msg 63 176 list /IRMenu3 0 1 2 3 4 5 6 7;
#X msg 64 236 list /IRMenu4 0 1 2 3 4 5 6 7;
#X msg 61 476 list /IRMenu8 0 1 2 3 4 5 6 7;
#X msg 60 416 list /IRMenu7 0 1 2 3 4 5 6 7;
#X msg 62 356 list /IRMenu6 0 1 2 3 4 5 6 7;
#X msg 61 296 list /IRMenu5 0 1 2 3 4 5 6 7;
#X obj 4 29 bng 15 250 50 0 empty empty empty 17 7 0 10 #fcfcfc #000000
#000000;
#X connect 0 0 10 0;
#X connect 0 0 11 0;
#X connect 0 0 12 0;
#X connect 0 0 13 0;
#X connect 0 0 17 0;
#X connect 0 0 16 0;
#X connect 0 0 15 0;
#X connect 0 0 14 0;
#X connect 10 0 1 0;
#X connect 11 0 2 0;
#X connect 12 0 3 0;
#X connect 13 0 4 0;
#X connect 14 0 8 0;
#X connect 15 0 7 0;
#X connect 16 0 6 0;
#X connect 17 0 5 0;
#X connect 18 0 10 0;
#X connect 18 0 11 0;
#X connect 18 0 12 0;
#X connect 18 0 13 0;
#X connect 18 0 17 0;
#X connect 18 0 16 0;
#X connect 18 0 15 0;
#X connect 18 0 14 0;
#X restore 1064 248 pd abandon;
#X msg 1070 20 read -resize banks/elephant.wav music;
#X obj 392 840 *~;
#X obj 551 827 r Volume;
#X obj 392 869 hip~ 3;
#X obj 551 856 pack 0 50;
#X obj 551 885 line~;
#X obj 393 925 dac~;
#X text 800 635 limit the gain;
#X obj 724 636 *~;
#X obj 795 858 s Gain;
#X obj 800 602 r Gain;
#X obj 724 677 clip~ -0.9 0.9;
#X obj 1301 769 route /MicToggle /musicToggle /RecToggle;
#X obj 1578 800 s RecToggle;
#X obj 1052 657 writesf~;
#X msg 1052 516 start;
#X msg 1055 612 stop;
#X obj 1052 414 select 1 0;
#X obj 1052 451 t b b;
#X obj 1052 379 r RecToggle;
#X obj -509 331 receive fromGUI;
#X obj -509 360 route list;
#X obj -509 389 route /Seq1Toggle /Seq2Toggle /Seq3Toggle /Seq4Toggle
/Seq5Toggle /Seq6Toggle /Seq7Toggle /Seq8Toggle;
#X obj -523 497 s seq_1;
#X obj -448 496 s seq_2;
#X obj -374 495 s seq_3;
#X obj -299 494 s seq_4;
#X obj -287 529 s seq_5;
#X obj -213 528 s seq_6;
#X obj -139 527 s seq_7;
#X obj -64 526 s seq_8;
#X obj 63 380 ==;
#N canvas -27 276 2109 1215 arraySeqToggle 0;
#N canvas 0 50 450 250 (subpatch) 0;
#X array arraySeqToggle 8 float 3;
#A 0 -3 0 0 0 0 0 0 0;
#X coords 0 1 8 0 200 140 1 0 0;
#X restore 100 20 graph;
#X obj 95 245 tabwrite arraySeqToggle;
#X obj 94 207 r seq_1;
#X floatatom 310 206 5 0 0 0 - - - 0;
#X obj 94 326 tabwrite arraySeqToggle;
#X floatatom 309 287 5 0 0 0 - - - 0;
#X obj 93 288 r seq_2;
#X obj 378 251 tabwrite arraySeqToggle;
#X floatatom 593 212 5 0 0 0 - - - 0;
#X obj 377 332 tabwrite arraySeqToggle;
#X floatatom 592 293 5 0 0 0 - - - 0;
#X obj 377 213 r seq_3;
#X obj 376 294 r seq_4;
#X obj 665 249 tabwrite arraySeqToggle;
#X floatatom 880 210 5 0 0 0 - - - 0;
#X obj 664 330 tabwrite arraySeqToggle;
#X floatatom 879 291 5 0 0 0 - - - 0;
#X obj 948 255 tabwrite arraySeqToggle;
#X floatatom 1163 216 5 0 0 0 - - - 0;
#X obj 947 336 tabwrite arraySeqToggle;
#X floatatom 1162 297 5 0 0 0 - - - 0;
#X obj 664 211 r seq_5;
#X obj 663 292 r seq_6;
#X obj 947 217 r seq_7;
#X obj 946 298 r seq_8;
#X obj 824 90 loadbang;
#X msg 655 131 1;
#X msg 700 131 2;
#X msg 747 131 3;
#X msg 788 132 4;
#X msg 835 132 5;
#X msg 880 132 6;
#X msg 923 133 7;
#X connect 2 0 1 0;
#X connect 3 0 1 1;
#X connect 5 0 4 1;
#X connect 6 0 4 0;
#X connect 8 0 7 1;
#X connect 10 0 9 1;
#X connect 11 0 7 0;
#X connect 12 0 9 0;
#X connect 14 0 13 1;
#X connect 16 0 15 1;
#X connect 18 0 17 1;
#X connect 20 0 19 1;
#X connect 21 0 13 0;
#X connect 22 0 15 0;
#X connect 23 0 17 0;
#X connect 24 0 19 0;
#X connect 25 0 26 0;
#X connect 25 0 27 0;
#X connect 25 0 28 0;
#X connect 25 0 29 0;
#X connect 25 0 30 0;
#X connect 25 0 31 0;
#X connect 25 0 32 0;
#X connect 26 0 5 0;
#X connect 27 0 8 0;
#X connect 28 0 10 0;
#X connect 29 0 14 0;
#X connect 30 0 16 0;
#X connect 31 0 18 0;
#X connect 32 0 20 0;
#X restore -490 557 pd arraySeqToggle;
#X obj 63 336 tabread arraySeqToggle;
#X floatatom 129 369 5 0 0 0 - - - 0;
#X obj 62 417 sel 0;
#X text 1064 -43 load music file;
#X text 1444 -44 For testing sample loading switch;
#X text 685 -53 Clock system: loop through 0-7;
#X text 688 -29 rate controlled by BPM;
#X text 322 103 MultiSlider range 0-1;
#X text 320 130 IR samples number: 10;
#X text 320 74 Which IR sample to load?;
#X text -513 290 Store sequence element toggles in an array;
#X text 622 344 Whether to load assigned sample?;
#X msg 1115 612 open banks/10.wav;
#X text 600 373 trigger playback when input is not 0;
#X text 570 417 load the assigned sample to temporary array;
#X msg 108 591 read -resize banks/\$1.wav sample_filter;
#X obj 110 680 tabplay~ sample_filter;
#X obj 221 386 sel 0 1 2 3 4 5 6 7;
#X obj 221 420 bng 15 250 50 0 empty empty empty 17 7 0 10 #fcfcfc
#000000 #000000;
#X obj 243 419 bng 15 250 50 0 empty empty empty 17 7 0 10 #fcfcfc
#000000 #000000;
#X obj 265 419 bng 15 250 50 0 empty empty empty 17 7 0 10 #fcfcfc
#000000 #000000;
#X obj 287 418 bng 15 250 50 0 empty empty empty 17 7 0 10 #fcfcfc
#000000 #000000;
#X obj 310 419 bng 15 250 50 0 empty empty empty 17 7 0 10 #fcfcfc
#000000 #000000;
#X obj 332 419 bng 15 250 50 0 empty empty empty 17 7 0 10 #fcfcfc
#000000 #000000;
#X obj 354 418 bng 15 250 50 0 empty empty empty 17 7 0 10 #fcfcfc
#000000 #000000;
#X obj 376 417 bng 15 250 50 0 empty empty empty 17 7 0 10 #fcfcfc
#000000 #000000;
#X obj 1231 429 + 1;
#X obj 1231 371 abs;
#X obj 1231 400 * -1;
#X obj 1394 387 print tiltx;
#X obj 1401 485 print mix;
#X obj -93 284 send toGUI;
#X msg -108 210 list /indexSlider \$1;
#X connect 1 0 2 0;
#X connect 2 0 3 0;
#X connect 3 0 6 0;
#X connect 4 0 29 0;
#X connect 4 0 3 0;
#X connect 5 0 8 0;
#X connect 5 0 9 0;
#X connect 5 0 11 0;
#X connect 7 0 5 0;
#X connect 8 0 5 1;
#X connect 11 0 10 0;
#X connect 12 0 176 0;
#X connect 12 0 193 0;
#X connect 12 0 208 0;
#X connect 13 0 192 0;
#X connect 15 0 37 0;
#X connect 16 0 17 0;
#X connect 18 0 20 0;
#X connect 19 0 21 0;
#X connect 22 0 26 0;
#X connect 23 0 27 0;
#X connect 24 0 28 0;
#X connect 25 0 38 0;
#X connect 29 0 30 0;
#X connect 30 0 31 0;
#X connect 31 0 5 1;
#X connect 33 0 34 0;
#X connect 34 0 85 0;
#X connect 36 0 42 1;
#X connect 39 0 40 1;
#X connect 40 0 41 0;
#X connect 41 0 191 0;
#X connect 42 0 43 0;
#X connect 43 0 191 0;
#X connect 44 0 45 0;
#X connect 45 0 191 0;
#X connect 46 0 47 0;
#X connect 47 0 191 0;
#X connect 48 0 44 1;
#X connect 49 0 46 1;
#X connect 50 0 51 0;
#X connect 51 0 191 0;
#X connect 52 0 53 0;
#X connect 53 0 191 0;
#X connect 54 0 55 0;
#X connect 55 0 191 0;
#X connect 56 0 57 0;
#X connect 57 0 191 0;
#X connect 58 0 50 1;
#X connect 59 0 52 1;
#X connect 60 0 54 1;
#X connect 61 0 56 1;
#X connect 64 0 65 0;
#X connect 64 0 68 0;
#X connect 65 0 67 0;
#X connect 67 0 144 0;
#X connect 68 0 144 0;
#X connect 69 0 70 0;
#X connect 70 0 68 1;
#X connect 71 0 77 0;
#X connect 71 0 157 0;
#X connect 72 0 73 0;
#X connect 73 0 127 0;
#X connect 74 0 75 0;
#X connect 75 0 155 0;
#X connect 76 0 77 1;
#X connect 77 0 151 0;
#X connect 80 0 69 0;
#X connect 81 0 1 0;
#X connect 84 0 4 0;
#X connect 85 0 86 0;
#X connect 85 0 103 0;
#X connect 85 0 104 0;
#X connect 85 0 105 0;
#X connect 85 0 106 0;
#X connect 85 0 107 0;
#X connect 85 0 108 0;
#X connect 85 0 109 0;
#X connect 86 0 88 0;
#X connect 87 0 110 0;
#X connect 88 0 87 0;
#X connect 89 0 111 0;
#X connect 90 0 89 0;
#X connect 91 0 112 0;
#X connect 92 0 91 0;
#X connect 93 0 113 0;
#X connect 94 0 93 0;
#X connect 95 0 114 0;
#X connect 96 0 95 0;
#X connect 97 0 115 0;
#X connect 98 0 97 0;
#X connect 99 0 116 0;
#X connect 100 0 99 0;
#X connect 101 0 117 0;
#X connect 102 0 101 0;
#X connect 103 0 90 0;
#X connect 104 0 92 0;
#X connect 105 0 94 0;
#X connect 106 0 96 0;
#X connect 107 0 98 0;
#X connect 108 0 100 0;
#X connect 109 0 102 0;
#X connect 119 0 121 0;
#X connect 119 0 122 0;
#X connect 120 0 67 1;
#X connect 121 0 123 0;
#X connect 122 0 124 0;
#X connect 123 0 64 0;
#X connect 124 0 64 0;
#X connect 126 0 125 0;
#X connect 127 0 78 0;
#X connect 127 1 152 0;
#X connect 127 2 79 0;
#X connect 127 3 83 0;
#X connect 127 4 126 0;
#X connect 128 0 131 0;
#X connect 128 0 132 0;
#X connect 129 0 130 0;
#X connect 130 0 128 0;
#X connect 131 0 203 0;
#X connect 131 0 205 0;
#X connect 132 0 136 0;
#X connect 136 0 138 0;
#X connect 138 0 139 0;
#X connect 141 0 143 0;
#X connect 143 0 63 0;
#X connect 144 0 146 0;
#X connect 145 0 147 0;
#X connect 146 0 149 0;
#X connect 146 0 149 1;
#X connect 147 0 148 0;
#X connect 148 0 144 1;
#X connect 151 0 154 0;
#X connect 153 0 151 1;
#X connect 154 0 65 0;
#X connect 154 0 68 0;
#X connect 155 0 82 0;
#X connect 155 1 118 0;
#X connect 155 2 156 0;
#X connect 158 0 157 0;
#X connect 159 0 157 0;
#X connect 160 0 161 0;
#X connect 160 1 159 0;
#X connect 161 0 158 0;
#X connect 161 1 188 0;
#X connect 162 0 160 0;
#X connect 163 0 164 0;
#X connect 164 0 165 0;
#X connect 165 0 166 0;
#X connect 165 1 167 0;
#X connect 165 2 168 0;
#X connect 165 3 169 0;
#X connect 165 4 170 0;
#X connect 165 5 171 0;
#X connect 165 6 172 0;
#X connect 165 7 173 0;
#X connect 174 0 178 0;
#X connect 176 0 174 0;
#X connect 177 0 174 1;
#X connect 178 0 13 0;
#X connect 188 0 157 0;
#X connect 191 0 35 0;
#X connect 192 0 65 1;
#X connect 193 0 194 0;
#X connect 193 1 195 0;
#X connect 193 2 196 0;
#X connect 193 4 198 0;
#X connect 193 5 199 0;
#X connect 193 6 200 0;
#X connect 193 7 201 0;
#X connect 194 0 40 0;
#X connect 195 0 42 0;
#X connect 196 0 44 0;
#X connect 197 0 46 0;
#X connect 198 0 50 0;
#X connect 199 0 52 0;
#X connect 200 0 54 0;
#X connect 201 0 56 0;
#X connect 202 0 135 0;
#X connect 202 0 206 0;
#X connect 203 0 204 0;
#X connect 204 0 202 0;
#X connect 208 0 207 0;
